# xmcd
# 
# Track frame offsets:
#     150
#     20197
#     39112
#     60252
#     84215
#     102155
#     123872
#     145622
#     163850
#     189422
#     217092
#     236367
#     252085
#     278250
# 
# Disc length: 4443
# 
# Revision: 7
# Processed by: cddbd v1.5.2PL0 Copyright (c) Steve Scherf et al.
# Submitted via: BonkEnc v1.0.8
# 
DISCID=aa11590e
DTITLE=Nena - Chokmah
DYEAR=2001
DGENRE=Pop
TTITLE0=Chokmah
TTITLE1=Heute hab' ich die Sonne mit dem Mond verwechselt
TTITLE2=Carpe Diem
TTITLE3=Lass die Leinen los
TTITLE4=Ich hör' mir zu
TTITLE5=Lichtarbeiter
TTITLE6=Rede lieber nicht zu viel
TTITLE7=Kann schon sein
TTITLE8=Silbermond
TTITLE9=Club der Leisen
TTITLE10=Du gibst
TTITLE11=Leuchtturm
TTITLE12=Dafür ist das Leben zu kurz
TTITLE13=Carpe Diem (Söhne Mannheims Dancehall-Mix)
EXTD=ID3G: 13 YEAR: 2001
EXTT0=
EXTT1=
EXTT2=
EXTT3=
EXTT4=
EXTT5=
EXTT6=
EXTT7=
EXTT8=
EXTT9=
EXTT10=
EXTT11=
EXTT12=
EXTT13=
PLAYORDER=
